<mxfile host="app.diagrams.net" modified="2023-10-02T21:32:06.533Z" agent="Mozilla/5.0 (Windows NT 10.0; Win64; x64) AppleWebKit/537.36 (KHTML, like Gecko) Chrome/117.0.0.0 Safari/537.36" etag="npjGYPrVhf-w9_mNI-ep" version="22.0.1" type="github">
  <diagram name="Page-1" id="9ZfWKm38IkFVMgGjehM1">
    <mxGraphModel dx="880" dy="446" grid="1" gridSize="10" guides="1" tooltips="1" connect="1" arrows="1" fold="1" page="1" pageScale="1" pageWidth="850" pageHeight="1100" math="0" shadow="0">
      <root>
        <mxCell id="0" />
        <mxCell id="1" parent="0" />
        <mxCell id="URiqEozGuAV-B9sY6vPN-1" value="Actor" style="shape=umlActor;verticalLabelPosition=bottom;verticalAlign=top;html=1;outlineConnect=0;" vertex="1" parent="1">
          <mxGeometry x="70" y="190" width="30" height="60" as="geometry" />
        </mxCell>
        <mxCell id="URiqEozGuAV-B9sY6vPN-2" value="View Movies" style="ellipse;whiteSpace=wrap;html=1;" vertex="1" parent="1">
          <mxGeometry x="200" y="10" width="120" height="80" as="geometry" />
        </mxCell>
        <mxCell id="URiqEozGuAV-B9sY6vPN-4" value="Subscription" style="ellipse;whiteSpace=wrap;html=1;" vertex="1" parent="1">
          <mxGeometry x="200" y="130" width="120" height="80" as="geometry" />
        </mxCell>
        <mxCell id="URiqEozGuAV-B9sY6vPN-6" value="Add To List" style="ellipse;whiteSpace=wrap;html=1;" vertex="1" parent="1">
          <mxGeometry x="200" y="310" width="120" height="80" as="geometry" />
        </mxCell>
        <mxCell id="URiqEozGuAV-B9sY6vPN-7" value="Comment" style="ellipse;whiteSpace=wrap;html=1;" vertex="1" parent="1">
          <mxGeometry x="200" y="220" width="120" height="80" as="geometry" />
        </mxCell>
        <mxCell id="URiqEozGuAV-B9sY6vPN-8" value="" style="endArrow=classic;html=1;rounded=0;exitX=0.5;exitY=1;exitDx=0;exitDy=0;dashed=1;" edge="1" parent="1" source="URiqEozGuAV-B9sY6vPN-2" target="URiqEozGuAV-B9sY6vPN-4">
          <mxGeometry relative="1" as="geometry">
            <mxPoint x="370" y="230" as="sourcePoint" />
            <mxPoint x="470" y="230" as="targetPoint" />
          </mxGeometry>
        </mxCell>
        <mxCell id="URiqEozGuAV-B9sY6vPN-9" value="Include" style="edgeLabel;resizable=0;html=1;align=center;verticalAlign=middle;" connectable="0" vertex="1" parent="URiqEozGuAV-B9sY6vPN-8">
          <mxGeometry relative="1" as="geometry" />
        </mxCell>
        <mxCell id="URiqEozGuAV-B9sY6vPN-10" value="Authentication" style="ellipse;whiteSpace=wrap;html=1;" vertex="1" parent="1">
          <mxGeometry x="390" y="130" width="120" height="80" as="geometry" />
        </mxCell>
        <mxCell id="URiqEozGuAV-B9sY6vPN-11" value="" style="endArrow=classic;html=1;rounded=0;exitX=1;exitY=0.5;exitDx=0;exitDy=0;dashed=1;" edge="1" parent="1" source="URiqEozGuAV-B9sY6vPN-4" target="URiqEozGuAV-B9sY6vPN-10">
          <mxGeometry relative="1" as="geometry">
            <mxPoint x="370" y="230" as="sourcePoint" />
            <mxPoint x="470" y="230" as="targetPoint" />
          </mxGeometry>
        </mxCell>
        <mxCell id="URiqEozGuAV-B9sY6vPN-12" value="Include" style="edgeLabel;resizable=0;html=1;align=center;verticalAlign=middle;" connectable="0" vertex="1" parent="URiqEozGuAV-B9sY6vPN-11">
          <mxGeometry relative="1" as="geometry" />
        </mxCell>
        <mxCell id="URiqEozGuAV-B9sY6vPN-16" value="" style="endArrow=classic;html=1;rounded=0;exitX=1;exitY=0.5;exitDx=0;exitDy=0;dashed=1;" edge="1" parent="1" source="URiqEozGuAV-B9sY6vPN-7" target="URiqEozGuAV-B9sY6vPN-10">
          <mxGeometry relative="1" as="geometry">
            <mxPoint x="340" y="240" as="sourcePoint" />
            <mxPoint x="460" y="270" as="targetPoint" />
          </mxGeometry>
        </mxCell>
        <mxCell id="URiqEozGuAV-B9sY6vPN-17" value="Include" style="edgeLabel;resizable=0;html=1;align=center;verticalAlign=middle;" connectable="0" vertex="1" parent="URiqEozGuAV-B9sY6vPN-16">
          <mxGeometry relative="1" as="geometry" />
        </mxCell>
        <mxCell id="URiqEozGuAV-B9sY6vPN-18" value="" style="endArrow=classic;html=1;rounded=0;exitX=1;exitY=0.5;exitDx=0;exitDy=0;entryX=0.5;entryY=1;entryDx=0;entryDy=0;dashed=1;" edge="1" parent="1" source="URiqEozGuAV-B9sY6vPN-6" target="URiqEozGuAV-B9sY6vPN-10">
          <mxGeometry relative="1" as="geometry">
            <mxPoint x="381" y="311.19" as="sourcePoint" />
            <mxPoint x="469" y="250.19" as="targetPoint" />
          </mxGeometry>
        </mxCell>
        <mxCell id="URiqEozGuAV-B9sY6vPN-19" value="Include" style="edgeLabel;resizable=0;html=1;align=center;verticalAlign=middle;" connectable="0" vertex="1" parent="URiqEozGuAV-B9sY6vPN-18">
          <mxGeometry relative="1" as="geometry" />
        </mxCell>
        <mxCell id="URiqEozGuAV-B9sY6vPN-20" value="" style="endArrow=none;html=1;rounded=0;exitX=1;exitY=0.3333333333333333;exitDx=0;exitDy=0;exitPerimeter=0;entryX=0;entryY=0.5;entryDx=0;entryDy=0;" edge="1" parent="1" source="URiqEozGuAV-B9sY6vPN-1" target="URiqEozGuAV-B9sY6vPN-2">
          <mxGeometry width="50" height="50" relative="1" as="geometry">
            <mxPoint x="110" y="250" as="sourcePoint" />
            <mxPoint x="210" y="102" as="targetPoint" />
          </mxGeometry>
        </mxCell>
        <mxCell id="URiqEozGuAV-B9sY6vPN-21" value="" style="endArrow=none;html=1;rounded=0;entryX=0;entryY=0.5;entryDx=0;entryDy=0;" edge="1" parent="1" target="URiqEozGuAV-B9sY6vPN-4">
          <mxGeometry width="50" height="50" relative="1" as="geometry">
            <mxPoint x="100" y="210" as="sourcePoint" />
            <mxPoint x="210" y="80" as="targetPoint" />
          </mxGeometry>
        </mxCell>
        <mxCell id="URiqEozGuAV-B9sY6vPN-22" value="" style="endArrow=none;html=1;rounded=0;exitX=1;exitY=0.3333333333333333;exitDx=0;exitDy=0;exitPerimeter=0;entryX=0;entryY=0.5;entryDx=0;entryDy=0;" edge="1" parent="1" source="URiqEozGuAV-B9sY6vPN-1" target="URiqEozGuAV-B9sY6vPN-6">
          <mxGeometry width="50" height="50" relative="1" as="geometry">
            <mxPoint x="110" y="230" as="sourcePoint" />
            <mxPoint x="170" y="250" as="targetPoint" />
          </mxGeometry>
        </mxCell>
        <mxCell id="URiqEozGuAV-B9sY6vPN-23" value="" style="endArrow=none;html=1;rounded=0;entryX=0;entryY=0.5;entryDx=0;entryDy=0;" edge="1" parent="1" target="URiqEozGuAV-B9sY6vPN-7">
          <mxGeometry width="50" height="50" relative="1" as="geometry">
            <mxPoint x="100" y="210" as="sourcePoint" />
            <mxPoint x="190" y="280" as="targetPoint" />
          </mxGeometry>
        </mxCell>
        <mxCell id="URiqEozGuAV-B9sY6vPN-24" value="Search" style="ellipse;whiteSpace=wrap;html=1;" vertex="1" parent="1">
          <mxGeometry x="200" y="400" width="120" height="80" as="geometry" />
        </mxCell>
        <mxCell id="URiqEozGuAV-B9sY6vPN-25" value="" style="endArrow=none;html=1;rounded=0;entryX=0;entryY=0.5;entryDx=0;entryDy=0;" edge="1" parent="1" target="URiqEozGuAV-B9sY6vPN-24">
          <mxGeometry width="50" height="50" relative="1" as="geometry">
            <mxPoint x="100" y="210" as="sourcePoint" />
            <mxPoint x="190" y="370" as="targetPoint" />
          </mxGeometry>
        </mxCell>
        <mxCell id="URiqEozGuAV-B9sY6vPN-26" value="Checkout" style="ellipse;whiteSpace=wrap;html=1;" vertex="1" parent="1">
          <mxGeometry x="390" y="310" width="120" height="80" as="geometry" />
        </mxCell>
        <mxCell id="URiqEozGuAV-B9sY6vPN-27" value="" style="endArrow=classic;html=1;rounded=0;exitX=0;exitY=0.5;exitDx=0;exitDy=0;entryX=1;entryY=0.5;entryDx=0;entryDy=0;dashed=1;" edge="1" parent="1" source="URiqEozGuAV-B9sY6vPN-26" target="URiqEozGuAV-B9sY6vPN-6">
          <mxGeometry relative="1" as="geometry">
            <mxPoint x="480" y="259.5" as="sourcePoint" />
            <mxPoint x="550" y="259.5" as="targetPoint" />
          </mxGeometry>
        </mxCell>
        <mxCell id="URiqEozGuAV-B9sY6vPN-30" value="Extend" style="edgeLabel;html=1;align=center;verticalAlign=middle;resizable=0;points=[];" vertex="1" connectable="0" parent="URiqEozGuAV-B9sY6vPN-27">
          <mxGeometry x="-0.0571" relative="1" as="geometry">
            <mxPoint y="1" as="offset" />
          </mxGeometry>
        </mxCell>
        <mxCell id="URiqEozGuAV-B9sY6vPN-31" value="Authorization" style="ellipse;whiteSpace=wrap;html=1;" vertex="1" parent="1">
          <mxGeometry x="390" y="10" width="120" height="80" as="geometry" />
        </mxCell>
        <mxCell id="URiqEozGuAV-B9sY6vPN-32" value="" style="endArrow=classic;html=1;rounded=0;exitX=1;exitY=0.5;exitDx=0;exitDy=0;entryX=0;entryY=0.5;entryDx=0;entryDy=0;dashed=1;" edge="1" parent="1" source="URiqEozGuAV-B9sY6vPN-2" target="URiqEozGuAV-B9sY6vPN-31">
          <mxGeometry relative="1" as="geometry">
            <mxPoint x="370" y="230" as="sourcePoint" />
            <mxPoint x="470" y="230" as="targetPoint" />
          </mxGeometry>
        </mxCell>
        <mxCell id="URiqEozGuAV-B9sY6vPN-33" value="Include" style="edgeLabel;resizable=0;html=1;align=center;verticalAlign=middle;" connectable="0" vertex="1" parent="URiqEozGuAV-B9sY6vPN-32">
          <mxGeometry relative="1" as="geometry" />
        </mxCell>
      </root>
    </mxGraphModel>
  </diagram>
</mxfile>
